<svg width="26" height="44" viewBox="0 0 26 44" fill="none" xmlns="http://www.w3.org/2000/svg">
<path d="M15.456 44H8.39598C7.21673 44 6.25746 43.0426 6.25746 41.8657V25.9726H2.13852C0.959271 25.9726 0 25.0149 0 23.8383V17.028C0 15.8511 0.959271 14.8937 2.13852 14.8937H6.25746V11.4834C6.25746 8.10196 7.32134 5.22507 9.33372 3.16425C11.3552 1.09402 14.1802 0 17.5033 0L22.8876 0.00872798C24.0649 0.0107422 25.0224 0.96814 25.0224 2.14307V8.46619C25.0224 9.64313 24.0635 10.6005 22.8846 10.6005L19.2594 10.6019C18.1538 10.6019 17.8723 10.8231 17.8121 10.8909C17.7129 11.0034 17.5948 11.3213 17.5948 12.1991V14.8934H22.6122C22.9899 14.8934 23.3558 14.9864 23.6703 15.1616C24.3487 15.5399 24.7705 16.2553 24.7705 17.0284L24.7678 23.8386C24.7678 25.0149 23.8086 25.9723 22.6293 25.9723H17.5948V41.8657C17.5948 43.0426 16.6352 44 15.456 44ZM8.84198 41.4205H15.01V24.8178C15.01 24.032 15.6507 23.3928 16.4378 23.3928H22.1833L22.1857 17.4732H16.4374C15.6504 17.4732 15.01 16.834 15.01 16.0482V12.1991C15.01 11.1913 15.1126 10.0453 15.8747 9.1839C16.7957 8.14258 18.247 8.0224 19.2587 8.0224L22.4379 8.02106V2.58752L17.5013 2.57947C12.1607 2.57947 8.84198 5.99146 8.84198 11.4834V16.0482C8.84198 16.8337 8.20157 17.4732 7.41451 17.4732H2.58452V23.3928H7.41451C8.20157 23.3928 8.84198 24.032 8.84198 24.8178V41.4205ZM22.8826 2.5882H22.8829H22.8826Z" fill="white"/>
</svg>
