<svg width="49" height="39" viewBox="0 0 49 39" fill="none" xmlns="http://www.w3.org/2000/svg">
<path d="M48.0241 9.43046C48.0241 9.27046 47.5442 5.75109 46.0245 4.07137C44.1847 2.07172 42.1851 1.83176 41.1453 1.75171H40.8254C34.3464 1.27179 24.668 1.19183 24.508 1.19183C24.4281 1.19183 14.6696 1.27179 8.27064 1.91172H8.03068C6.91074 1.99167 4.9111 2.23163 3.15141 4.23128C1.55164 5.911 1.07172 9.51042 1.07172 9.67042C1.07172 9.67042 0.591797 13.7498 0.591797 17.8291V21.5885C0.591797 25.5879 1.07172 29.6672 1.07172 29.7472C1.07172 29.9072 1.55164 33.4266 3.07136 35.1063C4.75109 37.026 6.75073 37.2659 8.03059 37.4259C8.27055 37.4259 8.43055 37.4259 8.67052 37.5059C12.3499 37.8258 24.028 37.9858 24.5079 37.9858C24.5879 37.9858 34.3463 37.9858 40.8253 37.2659H41.0653C42.1851 37.186 44.1847 36.946 45.9444 34.9463C47.5442 33.2666 48.0241 29.6671 48.0241 29.5071C48.0241 29.5071 48.504 25.4278 48.504 21.3485V17.5891C48.504 13.5898 48.0241 9.51042 48.0241 9.43046ZM46.9043 21.5085C46.9043 25.5079 46.4244 29.5071 46.4244 29.5071C46.2643 30.387 45.7844 32.9465 44.7446 34.0664C43.3848 35.6662 41.7851 35.8261 40.9053 35.9061H40.6653C34.2663 36.3861 24.5879 36.3861 24.5079 36.3861C24.428 36.3861 12.4299 36.226 8.91048 35.8262C8.67052 35.8262 8.43056 35.7462 8.19059 35.7462C7.07074 35.6663 5.47107 35.4263 4.19121 33.9865C3.23137 32.9467 2.67149 30.3871 2.59144 29.5072C2.59144 29.4273 2.11152 25.4279 2.11152 21.5086V17.7491C2.11152 13.7498 2.59144 9.75047 2.59144 9.75047C2.6714 8.87059 3.23137 6.31106 4.19121 5.19122C5.63098 3.59144 7.1507 3.43144 8.11054 3.35148H8.35051C14.7495 2.87156 24.4279 2.7916 24.5079 2.7916C24.5878 2.7916 34.2663 2.87156 40.6652 3.35148H40.9851C41.865 3.43144 43.4647 3.59144 44.8245 5.19122C45.7843 6.31106 46.2643 8.87059 46.4243 9.75047C46.5042 9.91048 46.9042 13.9098 46.9042 17.7491V21.5085H46.9043Z" fill="white" stroke="white" stroke-width="0.5"/>
<path d="M34.5057 19.6688L19.3082 10.7903C19.0682 10.6303 18.7483 10.6303 18.5084 10.7903C18.2684 10.9503 18.1084 11.1902 18.1084 11.5101V28.8673C18.1084 29.1872 18.2684 29.4272 18.5084 29.5872C18.6684 29.6671 18.7483 29.6671 18.9083 29.6671C19.0683 29.6671 19.1483 29.6671 19.3083 29.5872L34.5058 21.1086C34.7458 20.9486 34.9058 20.7086 34.9058 20.3887C34.9058 20.0688 34.7457 19.8287 34.5057 19.6688ZM19.7082 27.5075V12.8699L32.5061 20.3886L19.7082 27.5075Z" fill="white" stroke="white" stroke-width="0.5"/>
</svg>
