<svg width="55" height="33" viewBox="0 0 55 33" fill="none" xmlns="http://www.w3.org/2000/svg">
<path d="M52.283 24.787C51.1027 23.3725 49.7693 22.1096 48.4797 20.8882C48.0265 20.4589 47.5577 20.0149 47.1062 19.5742C47.1061 19.5741 47.106 19.574 47.1059 19.5739C46.4986 18.9816 46.2014 18.5611 46.1703 18.2506C46.1398 17.9454 46.3483 17.4926 46.8281 16.8232C47.5455 15.8164 48.3101 14.8079 49.0498 13.8327C49.7073 12.9658 50.387 12.0694 51.0386 11.1678L51.1848 10.9654C52.456 9.20596 53.7704 7.38664 54.4747 5.16959C54.6759 4.53393 54.8847 3.59327 54.3809 2.76749C53.8769 1.9415 52.9425 1.6967 52.2839 1.58457C51.9623 1.52946 51.6571 1.52491 51.3731 1.52491L43.1274 1.51759C41.7018 1.49386 40.7128 2.16957 40.1738 3.52651C39.7424 4.61023 39.233 5.86618 38.6428 7.05758C37.5136 9.35761 36.0788 12.0067 33.9991 14.2139L33.9067 14.3123C33.7651 14.4634 33.5337 14.7105 33.4149 14.7672C33.1896 14.6257 32.9297 13.8159 32.9415 13.3917C32.9418 13.3812 32.942 13.3708 32.942 13.3604L32.9346 3.83268C32.9346 3.78425 32.9313 3.73581 32.9248 3.6878C32.7399 2.32854 32.3793 0.965874 30.228 0.541328C30.159 0.527657 30.0888 0.520874 30.0187 0.520874H21.4414C19.8276 0.520874 18.9741 1.25986 18.2898 2.06105C18.0917 2.29462 17.5654 2.9148 17.8336 3.67297C18.1049 4.44014 18.9133 4.59328 19.1786 4.64351C20.1134 4.82092 20.5967 5.34922 20.7464 6.35918C21.0421 8.32157 21.0784 10.4209 20.8606 12.9625C20.7999 13.6449 20.6869 14.1636 20.5046 14.5949C20.4542 14.7144 20.4099 14.7883 20.3789 14.8319C20.3296 14.812 20.2527 14.7738 20.1463 14.701C19.4895 14.2516 18.9944 13.5528 18.5157 12.8773C16.6037 10.1778 14.9954 7.1962 13.5983 3.76093C13.0229 2.35323 11.9413 1.56698 10.5547 1.54663C7.91289 1.50265 5.46958 1.50371 3.08762 1.55002C1.96415 1.56952 1.17632 1.92317 0.745622 2.60132C0.314399 3.28074 0.33019 4.14701 0.792676 5.17647C4.09876 12.5281 7.10068 17.8762 10.5259 22.5174C12.9376 25.7849 15.3653 28.053 18.166 29.6554C21.1086 31.3389 24.4272 32.1639 28.2771 32.1638C28.7149 32.1638 29.1604 32.1531 29.6117 32.1316C31.987 32.0234 32.9534 31.0786 33.0588 28.7652C33.118 27.5425 33.2541 26.5521 33.7262 25.6915C33.8582 25.4506 34.0072 25.2891 34.1247 25.2596C34.2495 25.2284 34.4709 25.3048 34.7171 25.4647C35.1672 25.757 35.5547 26.1534 35.8734 26.5013C36.1964 26.855 36.5228 27.2203 36.8388 27.5735C37.511 28.3256 38.2061 29.1034 38.9344 29.8452C40.5816 31.5243 42.4805 32.2944 44.5806 32.1331L52.1268 32.1366C52.127 32.1366 52.1271 32.1366 52.1272 32.1366C52.1511 32.1366 52.1751 32.1358 52.1991 32.1342C53.0695 32.0763 53.822 31.5944 54.2639 30.8118C54.796 29.8695 54.788 28.6759 54.242 27.6177C53.6722 26.5175 52.9331 25.5706 52.283 24.787ZM52.3817 29.749C52.2776 29.9333 52.1492 29.9669 52.083 29.9749L44.5385 29.9714C44.5382 29.9714 44.538 29.9714 44.5377 29.9714C44.5079 29.9714 44.4782 29.9726 44.4486 29.9751C42.9623 30.0989 41.6989 29.5765 40.4772 28.3312C39.7842 27.6252 39.1061 26.8667 38.4505 26.1331C38.1309 25.7757 37.8006 25.4059 37.4687 25.0426C37.0571 24.5931 36.5483 24.0764 35.8945 23.6519C34.9157 23.0165 34.1045 23.0357 33.5966 23.1638C33.0939 23.2904 32.3794 23.6518 31.831 24.6526C31.1205 25.9476 30.9638 27.3446 30.9 28.6643C30.8631 29.4714 30.7266 29.6847 30.6696 29.7388C30.5949 29.8098 30.3452 29.9347 29.5121 29.9727C25.5087 30.1609 22.149 29.444 19.2396 27.7794C16.7086 26.3313 14.4924 24.2513 12.2653 21.234C8.93494 16.7216 6.00466 11.496 2.76439 4.29061C2.64697 4.02958 2.61072 3.8667 2.60023 3.77948C2.68289 3.75235 2.8444 3.71663 3.12758 3.71144C5.48537 3.66576 7.90314 3.66449 10.5211 3.70815C10.8795 3.71345 11.2876 3.82102 11.5967 4.57717C13.0564 8.16653 14.7426 11.2902 16.752 14.127C17.2855 14.88 17.9495 15.8173 18.9255 16.485C19.8194 17.0972 20.5448 17.0679 20.996 16.9357C21.4475 16.8033 22.0741 16.4355 22.4961 15.4364C22.7683 14.7924 22.9329 14.0672 23.0144 13.1509C23.2472 10.4322 23.2059 8.17193 22.8846 6.03998C22.6581 4.51252 21.8694 3.40908 20.627 2.8456C20.8477 2.73072 21.0963 2.68282 21.4416 2.68282H29.9068C30.383 2.78964 30.4773 2.91512 30.5097 2.95804C30.6468 3.14043 30.7252 3.57187 30.7731 3.90898L30.7803 13.3488C30.7613 14.2538 31.2011 16.2608 32.6985 16.8111C32.7108 16.8157 32.7232 16.8199 32.7356 16.824C34.0989 17.2695 35.0007 16.3071 35.4848 15.79L35.5711 15.6983C37.8491 13.2804 39.3832 10.4552 40.5817 8.01403C41.2063 6.75342 41.7353 5.44947 42.1827 4.32547C42.4065 3.76178 42.6102 3.66894 43.0962 3.67922C43.1029 3.67943 43.1095 3.67943 43.1162 3.67943L51.3724 3.68675C51.5645 3.68675 51.7649 3.68897 51.9203 3.71557C52.3137 3.78255 52.4758 3.86415 52.5292 3.89796C52.5347 3.96059 52.5334 4.14075 52.4145 4.51676C51.8156 6.402 50.6582 8.00375 49.433 9.6996L49.2867 9.90234C48.6501 10.7832 47.9779 11.6695 47.3279 12.5268C46.5786 13.5146 45.8041 14.5359 45.0698 15.5666C43.4999 17.7571 43.6379 19.2107 45.5971 21.1217C46.0601 21.5737 46.5347 22.0232 46.9937 22.4579C48.2953 23.6908 49.5247 24.8552 50.6219 26.1699C51.1963 26.8624 51.8474 27.694 52.322 28.6105C52.5696 29.0902 52.5088 29.5237 52.3817 29.749Z" fill="white" stroke="white" stroke-width="0.1"/>
</svg>
